<?xml version="1.0" encoding="utf-8"?>
<!-- Generator: Adobe Illustrator 16.0.0, SVG Export Plug-In . SVG Version: 6.00 Build 0)  -->
<!DOCTYPE svg PUBLIC "-//W3C//DTD SVG 1.1//EN" "http://www.w3.org/Graphics/SVG/1.1/DTD/svg11.dtd">
<svg version="1.1" xmlns="http://www.w3.org/2000/svg" xmlns:xlink="http://www.w3.org/1999/xlink" x="0px" y="0px"
     width="32px"
     height="32px" viewBox="0 0 32 32" enable-background="new 0 0 32 32" xml:space="preserve">
<g id="Layer_1" display="none">
	<path display="inline" fill="#E2636E" d="M16,0c0,0-21.07,32,0.529,32C36.75,32,16,0,16,0z"/>
</g>
    <g id="Layer_2">
	<path fill="#E2636E" d="M25.326,24.906c0.229-0.826,0.361-1.693,0.361-2.594c0-0.677-0.07-1.337-0.203-1.975
		C24.362,11.144,16,0,16,0S7.638,11.144,6.515,20.338c-0.132,0.638-0.203,1.298-0.203,1.975c0,0.899,0.132,1.767,0.361,2.593
		c0.408,1.757,1.286,3.313,2.788,4.54C11.186,31.027,13.476,32,16,32c2.524,0,4.816-0.974,6.54-2.556
		C24.041,28.219,24.918,26.663,25.326,24.906z"/>
</g>
</svg>
